<svg xmlns="http://www.w3.org/2000/svg" viewBox="0 0 1200 900" role="img" aria-label="Hero textile illustration"><defs><linearGradient id="bg" x1="0" y1="0" x2="1" y2="1"><stop offset="0%" stop-color="#fff7ea"/><stop offset="100%" stop-color="#f2e0c2"/></linearGradient><linearGradient id="maroon" x1="0" y1="0" x2="1" y2="1"><stop offset="0%" stop-color="#6d1f27"/><stop offset="100%" stop-color="#9a3c33"/></linearGradient></defs><rect width="1200" height="900" rx="36" fill="url(#bg)"/><rect x="40" y="40" width="1120" height="820" rx="28" fill="#fff" opacity="0.6"/><path d="M0 640C140 560 240 560 360 620s240 140 380 90 240-170 460-120v270H0Z" fill="url(#maroon)" opacity="0.16"/><path d="M0 560c140-70 240-70 370 0s240 160 380 120 250-160 450-120v340H0Z" fill="#b8893b" opacity="0.12"/><g transform="translate(140 150)"><rect x="0" y="0" width="920" height="500" rx="40" fill="#fffaf4" stroke="#eadfce" stroke-width="4"/><path d="M90 110c140-50 220-30 320 25s180 75 290 35 180-85 250-60" fill="none" stroke="#6d1f27" stroke-width="22" stroke-linecap="round" opacity="0.8"/><path d="M90 190c120-60 220-50 310 0s190 82 300 48 190-92 290-60" fill="none" stroke="#b8893b" stroke-width="20" stroke-linecap="round" opacity="0.75"/></g><text x="80" y="120" font-family="Arial, sans-serif" font-size="34" font-weight="700" fill="#6d1f27">Saree Wholesale Showcase</text></svg>
